<svg xmlns="http://www.w3.org/2000/svg" viewBox="0 0 64 64" width="100" height="100">
  <!-- Sun -->
  <circle cx="32" cy="32" r="16" fill="#FFD700" />

  <!-- Clouds -->
  <g fill="#FFFFFF">
    <path d="M47,41c-2.2,0-4,1.8-4,4s1.8,4,4,4h1c3.3,0,6-2.7,6-6s-2.7-6-6-6H46c-3.3,0-6,2.7-6,6s2.7,6,6,6h1c2.2,0,4-1.8,4-4 S49.2,41,47,41z" />
    <path d="M23,37c-2.2,0-4,1.8-4,4s1.8,4,4,4h17c2.2,0,4-1.8,4-4s-1.8-4-4-4H23z" />
    <path d="M13,41c-2.2,0-4,1.8-4,4s1.8,4,4,4h1c3.3,0,6-2.7,6-6s-2.7-6-6-6H12c-3.3,0-6,2.7-6,6s2.7,6,6,6h1c2.2,0,4-1.8,4-4 S15.2,41,13,41z" />
  </g>
</svg>
